<svg id="Layer_1" data-name="Layer 1" xmlns="http://www.w3.org/2000/svg" viewBox="0 0 39.79 8.62"><defs><style>.cls-1{fill:#ea4e52;}.cls-2{fill:#333;}</style></defs><path class="cls-1" d="M52.52,17.39a4.31,4.31,0,0,0-8.23,1.69,2.1,2.1,0,0,0-.61-.09,2.25,2.25,0,0,0,0,4.49h.39a.27.27,0,0,0,.21-.09l4.13-4.12h0l.74-.74v.92a.3.3,0,1,0,.59,0V17.81a.32.32,0,0,0-.08-.21.31.31,0,0,0-.22-.09H47.81a.3.3,0,0,0-.3.3.29.29,0,0,0,.3.3h.92l-1.32,1.31h0L44,22.89h-.27a1.65,1.65,0,0,1,0-3.3,1.7,1.7,0,0,1,.78.19.29.29,0,0,0,.44-.28c0-.09,0-.21,0-.33a3.71,3.71,0,0,1,7.16-1.37.3.3,0,0,0,.3.19h.16a2.46,2.46,0,0,1,0,4.91h-6a.3.3,0,1,0,0,.59h6a3,3,0,1,0,0-6.09Z" transform="translate(-41.44 -14.86)"/><path class="cls-2" d="M58.63,23.38l-.23-1.32h-1l-.24,1.32h-.68l1.07-5.72h.76l1.06,5.72ZM57.9,19l-.4,2.45h.79Z" transform="translate(-41.44 -14.86)"/><path class="cls-2" d="M61,23.48a1.24,1.24,0,0,1-1.33-1.28v-.52h.7v.44c0,.48.23.76.63.76a.59.59,0,0,0,.63-.66,1.84,1.84,0,0,0-.8-1.44,2.75,2.75,0,0,1-1.1-1.88A1.23,1.23,0,0,1,61,17.56a1.21,1.21,0,0,1,1.28,1.28v.54h-.68v-.46c0-.44-.19-.74-.61-.74a.53.53,0,0,0-.58.59c0,.56.23.88.89,1.49a2.38,2.38,0,0,1,1,1.83A1.28,1.28,0,0,1,61,23.48Z" transform="translate(-41.44 -14.86)"/><path class="cls-2" d="M64.18,23.48a1.28,1.28,0,0,1-1.34-1.37V18.93a1.28,1.28,0,0,1,1.34-1.37,1.21,1.21,0,0,1,1.3,1.32v.78h-.63v-.8a.6.6,0,0,0-.65-.65.59.59,0,0,0-.65.63V22.2a.65.65,0,0,0,1.3,0v-.81h.63v.79A1.21,1.21,0,0,1,64.18,23.48Z" transform="translate(-41.44 -14.86)"/><path class="cls-2" d="M66.11,23.38V17.66h2.24v.65H66.82v1.78h1.11v.63H66.82v2h1.53v.66Z" transform="translate(-41.44 -14.86)"/><path class="cls-2" d="M71.19,23.38,70,20.54l-.38-1v3.81h-.68V17.66h.61l1.13,2.88.35,1V17.66h.68v5.72Z" transform="translate(-41.44 -14.86)"/><path class="cls-2" d="M73.84,23.38H72.47V17.66h1.37c.9,0,1.28.56,1.28,1.4V22C75.12,22.82,74.74,23.38,73.84,23.38Zm.57-4.32c0-.48-.18-.73-.61-.73h-.61v4.38h.61c.43,0,.61-.25.61-.72Z" transform="translate(-41.44 -14.86)"/><path class="cls-2" d="M75.75,23.38v-.91h.61v.91Z" transform="translate(-41.44 -14.86)"/><path class="cls-2" d="M77.11,23.38V17.66h.72v5.72Z" transform="translate(-41.44 -14.86)"/><path class="cls-2" d="M79.89,23.48a1.28,1.28,0,0,1-1.35-1.41V19a1.35,1.35,0,1,1,2.69,0v3.11A1.28,1.28,0,0,1,79.89,23.48Zm.63-4.59a.64.64,0,1,0-1.27,0v3.26a.64.64,0,1,0,1.27,0Z" transform="translate(-41.44 -14.86)"/></svg>