<svg xmlns="http://www.w3.org/2000/svg" id="Layer_1" data-name="Layer 1" viewBox="0 0 1080 1080"><defs><style>.cls-1{fill:none;}.cls-2{fill:#595d9c;}</style></defs><g id="Capa_2" data-name="Capa 2"><g id="Capa_1-2" data-name="Capa 1-2"><rect class="cls-1" width="1080" height="1080"></rect><path class="cls-2" d="M891.89,271.87l-50.26,50.26-35.14,35.14L629.05,534.71,526.51,432.17,389.8,568.89,629,808.13l18.6-18.61h0l381-380.93Zm-247,478.7h0L629,766.39,431.5,568.89l95-95L629.05,576.45,827.36,378.14,862.5,343l29.39-29.39,95,95Z"></path><polygon class="cls-2" points="257.4 713.27 257.4 739.6 512.86 739.6 486.32 713.27 257.4 713.27"></polygon><path class="cls-2" d="M266.48,728.31a50.71,50.71,0,1,1-50.71-50.71,50.71,50.71,0,0,1,50.71,50.71Zm-78.38,0a27.67,27.67,0,1,0,27.67-27.67h0A27.71,27.71,0,0,0,188.1,728.31Z"></path><path class="cls-2" d="M467,417.16a50.71,50.71,0,1,1,50.71-50.71A50.71,50.71,0,0,1,467,417.16Zm0-23a27.67,27.67,0,1,0-27.68-27.67A27.67,27.67,0,0,0,467,394.16Z"></path><polygon class="cls-2" points="143.75 545.99 143.75 519.66 399.21 519.66 372.67 545.99 143.75 545.99"></polygon><path class="cls-2" d="M102.12,581.67a50.72,50.72,0,1,1,50.71-50.73h0V531A50.79,50.79,0,0,1,102.12,581.67Zm0-23A27.67,27.67,0,1,0,74.44,531a27.67,27.67,0,0,0,27.68,27.67Z"></path><rect class="cls-2" x="508.64" y="355.16" width="116.09" height="26.33"></rect><polygon class="cls-2" points="669.7 355.16 669.7 381.49 737.56 381.49 764.1 355.16 669.7 355.16"></polygon></g></g></svg>