<svg xmlns="http://www.w3.org/2000/svg" id="Layer_1" data-name="Layer 1" viewBox="0 0 1080 1080"><defs><style>.cls-1{fill:none;}.cls-2{fill:#6ed4dc;}</style></defs><g id="Capa_2" data-name="Capa 2"><g id="Capa_1-2" data-name="Capa 1-2"><rect class="cls-1" width="1080" height="1080"></rect><rect class="cls-2" x="346.33" y="280.08" width="26.33" height="127.52"></rect><rect class="cls-2" x="707.34" y="224.55" width="26.33" height="254.15"></rect><rect class="cls-2" x="580.77" y="260.37" width="26.33" height="97.71"></rect><rect class="cls-2" x="580.77" y="402.87" width="26.33" height="71.45"></rect><rect class="cls-2" x="462.28" y="181.16" width="26.33" height="293.16"></rect><path class="cls-2" d="M481,961.52V704.1L260.69,486.79a18.26,18.26,0,0,1,12.82-31.26h533a18.26,18.26,0,0,1,12.89,31.19L599.79,705.31v154ZM310.56,489,514.42,690.11V888.58l51.91-44.67V691.41L769.68,489Z"></path><path class="cls-2" d="M514.12,195.83H436.77V118.48h77.35Zm-59.74-17.61h42.13V136.09H454.38Z"></path><path class="cls-2" d="M398.17,285.31H320.82V208h77.35ZM338.43,267.7h42.13V225.57H338.43Z"></path><path class="cls-2" d="M759.18,229H681.83V151.67h77.35Zm-59.74-17.61h42.13V169.28H699.44Z"></path><path class="cls-2" d="M632.61,267.7H555.26V190.34h77.35Zm-59.73-17.62H615V208H572.88Z"></path></g></g></svg>