<svg xmlns="http://www.w3.org/2000/svg" xmlns:xlink="http://www.w3.org/1999/xlink" id="Layer_1" data-name="Layer 1" viewBox="0 0 1080 1080"><defs><style>.cls-1{fill:none;}.cls-2{clip-path:url(#clip-path);}.cls-3{fill:#9ece8b;}</style><clipPath id="clip-path"><circle class="cls-1" cx="613.52" cy="458.75" r="171.47"></circle></clipPath></defs><g id="Capa_2" data-name="Capa 2"><g id="Capa_1-2" data-name="Capa 1-2"><rect class="cls-1" width="1080" height="1080"></rect><g class="cls-2"><path class="cls-3" d="M803,504.58C768.68,421,680.83,372,607.17,395.28c-60.77,19.22-93.15,81.77-83.34,150,.44,3.09,3.57,5.33,7.14,5l5.71-.46c3.74-.3,6.47-3.23,6-6.46-9-60.78,18.47-116,70.89-132.59,63.78-20.17,140.75,24.43,171.57,99.43s4,152.43-59.8,172.6-140.76-24.43-171.57-99.43h0a6.7,6.7,0,0,0-6.82-3.83l-6,.46c-4.29.35-7.12,4.11-5.71,7.64.19.48.39,1,.58,1.42,34.33,83.56,122.19,132.59,195.84,109.3S837.35,588.15,803,504.58Z"></path><path class="cls-3" d="M679.23,443.27l.06-.31c.55-2.91-1.51-5.72-4.78-6.46a103.21,103.21,0,0,0-15.35-2.31c-4.39-.32-7.95,3.1-7.11,6.85l.09.38A6.24,6.24,0,0,0,658,446a85.56,85.56,0,0,1,12.94,1.91C674.72,448.74,678.58,446.65,679.23,443.27Z"></path><path class="cls-3" d="M765.29,516.51a139.32,139.32,0,0,0-47-59.85c-4-2.89-10.12-.85-11,3.63h0a5.51,5.51,0,0,0,2.4,5.51,128,128,0,0,1,42.73,54.77c22.11,53.82,2.86,109.38-42.91,123.86s-101-17.53-123.12-71.35c-20.3-49.41-5.73-100.26,32.22-119.47a5.63,5.63,0,0,0,3.24-6.2v-.13c-.88-3.93-6-6-10-4-43.56,22.09-60.86,79-38.32,133.82,24.64,60,87.68,95.15,140.53,78.43S789.93,576.48,765.29,516.51Z"></path><path class="cls-3" d="M735,526.08c-16.79-40.84-59.87-64.77-96-53.33-20.83,6.59-34.88,23.5-39.85,44.47a5,5,0,0,0,3.25,5.71h0c3.41,1.37,7.48-.37,8.23-3.59,4.07-17.54,15.43-31.53,32.36-36.89,30-9.48,66.28,11.67,80.87,47.17s2,72.09-28,81.58S629.61,599.53,615,564a85.2,85.2,0,0,1-3.44-10.18,5.28,5.28,0,0,0-3.22-3.5l-.13-.06c-4.41-1.77-9.33,1.64-8.25,5.76a87.87,87.87,0,0,0,3.86,11.51c16.78,40.85,59.86,64.77,96,53.33S751.82,566.93,735,526.08Z"></path></g><path class="cls-3" d="M613.52,678.68C492.25,678.68,393.6,580,393.6,458.76s98.65-219.93,219.92-219.93,219.92,98.66,219.92,219.93S734.78,678.68,613.52,678.68Zm0-415.72c-108,0-195.8,87.83-195.8,195.8s87.83,195.79,195.8,195.79,195.79-87.83,195.79-195.79S721.48,263,613.52,263Z"></path><path class="cls-3" d="M909.35,442.25C902.2,279.05,764.09,152.54,600.89,159.7S311.18,305,318.34,468.16a295.75,295.75,0,0,0,40,136.09L332.92,632l22.29,21,41.43-45.23-6.34-9.91c-78.87-123.48-42.7-287.51,80.78-366.38s287.51-42.7,366.37,80.78,42.71,287.51-80.77,366.38A265.29,265.29,0,0,1,478.15,683l-10.71-6.39L286.7,874a49.37,49.37,0,1,1-72.82-66.69h0L326.72,684.1l-22.29-21L191.31,786.63a80,80,0,0,0,118,108l164-179.12c143.75,77.6,323.18,24,400.78-119.77A295.68,295.68,0,0,0,909.35,442.25Z"></path></g></g></svg>