<svg xmlns="http://www.w3.org/2000/svg" id="Layer_1" data-name="Layer 1" viewBox="0 0 1080 1080"><defs><style>.cls-1{fill:none;}.cls-2{fill:#a362ba;}</style></defs><g id="Capa_2" data-name="Capa 2"><g id="Capa_1-2" data-name="Capa 1-2"><rect class="cls-1" width="1080" height="1080"></rect><path class="cls-2" d="M204.87,635.65A95.65,95.65,0,1,1,300.53,540,95.64,95.64,0,0,1,204.87,635.65Zm0-162.86A67.21,67.21,0,1,0,272.08,540h0a67.29,67.29,0,0,0-67.21-67.21Z"></path><path class="cls-2" d="M875.13,635.65A95.65,95.65,0,1,1,970.78,540,95.64,95.64,0,0,1,875.13,635.65Zm0-162.86A67.21,67.21,0,1,0,942.33,540h0a67.28,67.28,0,0,0-67.2-67.21Z"></path><path class="cls-2" d="M540,300.53a95.66,95.66,0,1,1,95.66-95.66A95.66,95.66,0,0,1,540,300.53Zm0-162.86a67.21,67.21,0,1,0,67.21,67.21h0A67.28,67.28,0,0,0,540,137.67Z"></path><path class="cls-2" d="M540,970.78a95.66,95.66,0,1,1,95.66-95.66h0A95.77,95.77,0,0,1,540,970.78Zm0-162.86a67.21,67.21,0,1,0,67.21,67.21A67.21,67.21,0,0,0,540,807.92Z"></path><rect class="cls-2" x="501.8" y="591.56" width="178.63" height="16.57"></rect><path class="cls-2" d="M503.64,599.84a31.9,31.9,0,1,1-31.9-31.9A31.9,31.9,0,0,1,503.64,599.84Zm-49.31,0a17.41,17.41,0,1,0,17.41-17.41h0a17.43,17.43,0,0,0-17.41,17.41Z"></path><rect class="cls-2" x="625.79" y="522" width="99.55" height="16.57"></rect><rect class="cls-2" x="469.42" y="444.07" width="192.13" height="16.57"></rect><path class="cls-2" d="M471.74,452.36a31.9,31.9,0,1,1-31.9-31.91A31.9,31.9,0,0,1,471.74,452.36Zm-49.31,0A17.41,17.41,0,1,0,439.89,435h-.05A17.43,17.43,0,0,0,422.43,452.36Z"></path><rect class="cls-2" x="409.59" y="522" width="184.42" height="16.57"></rect><path class="cls-2" d="M418.47,530.28a31.91,31.91,0,1,1-31.92-31.9h0A32,32,0,0,1,418.47,530.28Zm-49.31,0a17.41,17.41,0,1,0,17.42-17.4h0A17.41,17.41,0,0,0,369.16,530.28Z"></path><rect class="cls-2" x="198.89" y="353.97" width="321.56" height="25.37" transform="translate(-153.92 361.72) rotate(-45)"></rect><rect class="cls-2" x="346.99" y="552.49" width="25.37" height="321.56" transform="translate(-399.01 463.24) rotate(-45)"></rect><rect class="cls-2" x="706.98" y="205.88" width="25.37" height="321.56" transform="translate(-48.49 616.27) rotate(-45)"></rect><rect class="cls-2" x="630.96" y="673.41" width="231.76" height="25.37" transform="translate(-266.4 729.05) rotate(-45)"></rect><polygon class="cls-2" points="721.48 787.94 644.47 787.94 644.47 708.51 669.85 708.51 669.85 762.56 721.48 762.56 721.48 787.94"></polygon></g></g></svg>