<svg xmlns="http://www.w3.org/2000/svg" id="Layer_1" data-name="Layer 1" viewBox="0 0 1080 1080"><defs><style>.cls-1{fill:none;}.cls-2{fill:#ee7d7d;}</style></defs><g id="Capa_2" data-name="Capa 2"><g id="Capa_1-2" data-name="Capa 1-2"><rect class="cls-1" width="1080" height="1080"></rect><path class="cls-2" d="M924.47,540a389,389,0,0,0-3.09-48l-.8-6.45h0l-17.66-6.4-75.3-27.29c-2.17-7.11-4.68-14.12-7.37-21.05a299.15,299.15,0,0,0-12.82-28.62l43-89.06L846.5,308q-7.71-10.18-16.11-19.83c-6-7-12.2-13.64-18.51-19.95a389.85,389.85,0,0,0-36.16-31.79l-5.12-4h0L681,274.28c-7.2-3.83-14.59-7.33-22.09-10.56-9-3.87-18.08-7.34-27.31-10.29l-23.1-66.21L599,160.08h0l-6.43-.88q-12.65-1.74-25.37-2.62c-9.19-.67-18.3-1-27.24-1a389,389,0,0,0-48,3.09l-6.45.81L456.69,239l-4.87,13.43c-7.22,2.21-14.33,4.75-21.37,7.5a295.06,295.06,0,0,0-28.3,12.69l-89.06-43-5.17,3.92q-10.17,7.71-19.8,16.09c-7,6-13.66,12.21-20,18.53a385.65,385.65,0,0,0-31.79,36.16l-4,5.13L274.28,399c-3.63,6.82-6.94,13.82-10,20.91a298.4,298.4,0,0,0-10.82,28.49l-57.1,19.9L160.06,481l-.88,6.43q-1.74,12.65-2.62,25.37c-.67,9.2-1,18.3-1,27.24a385.16,385.16,0,0,0,3.09,48l.81,6.45,93,33.69c2.2,7.2,4.74,14.31,7.48,21.33a297,297,0,0,0,12.71,28.34l-43,89.06,3.92,5.17q7.69,10.15,16.07,19.78c6,7,12.22,13.67,18.55,20a389.85,389.85,0,0,0,36.16,31.79l5.12,4h0l41.42-19.39L399,805.72a299.85,299.85,0,0,0,49.39,20.82L481,919.91l6.43.89a376.89,376.89,0,0,0,100.65.58l6.45-.81,33.73-93.07c7.55-2.49,16.39-6,24.71-9.43,8.55-3.38,17.53-7.14,24.82-10.71l89.14,43,5.17-3.93a376.88,376.88,0,0,0,71.59-70.76l4-5.12-42-89.55a300.89,300.89,0,0,0,20.86-49.39L919.94,599l.88-6.43q1.74-12.65,2.63-25.38C924.11,558,924.47,548.94,924.47,540ZM822.89,767.75a357,357,0,0,1-26,29.11,363.49,363.49,0,0,1-32.5,28.75l-87-42-4.77,2.57h-.07c-2.77,1.29-14.61,6.78-27.6,12.21-13.06,5.14-25.25,9.42-27.83,10.32L612,810.19l-33,90.89a351.8,351.8,0,0,1-82.3-.48l-31.83-91.22-5.19-1.55h-.1c-5.09-1.86-38.92-14.29-55.06-23.24L399.78,782h0l-56.23,26.31-31.27,14.64a366.57,366.57,0,0,1-51.07-50.12q-3.43-4.14-6.8-8.41l20-41.43,22-45.58-2.57-4.77a277.55,277.55,0,0,1-14.28-31q-4.68-12-8.28-24.5l-1.49-5.21L178.93,579a365.9,365.9,0,0,1-.67-71.51c.33-3.59.7-7.19,1.14-10.8l91.2-31.82h0l1.55-5.19a276.79,276.79,0,0,1,12.39-33.34q4.95-11.1,10.88-21.83l2.63-4.73h0l-40.95-87.5a366.17,366.17,0,0,1,50.06-51q4.17-3.48,8.47-6.86l87,42,4.77-2.57a277.66,277.66,0,0,1,33.45-15.26q10.81-4.08,22-7.3l5.21-1.49h0L501,178.93a365.48,365.48,0,0,1,71.47-.67c3.6.32,7.22.7,10.84,1.14L598,221.54l17.12,49.08,5.19,1.55a278.42,278.42,0,0,1,31.87,11.74q11.87,5.22,23.3,11.53l4.73,2.63h0l87.49-40.95a365.74,365.74,0,0,1,51,50q3.48,4.19,6.87,8.49l-25.24,52.3-16.76,34.71,2.57,4.77a274.79,274.79,0,0,1,14,30.34c3.21,8.2,6.07,16.58,8.52,25.12l1.49,5.21h0L901.07,501a366.16,366.16,0,0,1,.68,71.46c-.33,3.6-.71,7.22-1.15,10.84L822,610.75l-12.56,4.38h0l-1.55,5.19c-5.35,17.87-21.24,51-23.3,55.22l-2.6,4.69Z"></path><path class="cls-2" d="M316.22,438.8h77.35v77.35H316.22ZM376,456.41H333.83v42.13H376Z"></path><polygon class="cls-2" points="771.72 443.44 787.86 456.21 741.8 514.42 684.22 468.85 696.99 452.71 738.43 485.5 771.72 443.44"></polygon><path class="cls-2" d="M364.49,454.87c31.62-66.18,99.16-112,177.27-112,90.29,0,166.5,61.25,189.38,144.37H755c-23.45-96-110.12-167.44-213.22-167.44-91.13,0-169.39,55.86-202.53,135.11Z"></path><path class="cls-2" d="M731.94,551a44.43,44.43,0,1,1-44.42,44.44h0A44.48,44.48,0,0,1,731.94,551Zm0,68.67a24.24,24.24,0,1,0-24.24-24.24h0a24.27,24.27,0,0,0,24.24,24.19Z"></path><polygon class="cls-2" points="343.19 553.02 397.99 601.9 384.29 617.26 344.85 582.08 309.14 622.11 293.78 608.41 343.19 553.02"></polygon><path class="cls-2" d="M716.34,634.69c-35.47,64.2-105.59,106-183.57,101.4-90.13-5.32-162.59-71-180.54-155.27l-23.79-1.4c17.75,97.19,100.06,173.63,203,179.7,91,5.37,172.39-45.78,210.14-122.94Z"></path><path class="cls-2" d="M540,660.36A120.36,120.36,0,1,1,660.36,540h0A120.5,120.5,0,0,1,540,660.36Zm0-220.13A99.77,99.77,0,1,0,639.77,540,99.77,99.77,0,0,0,540,440.23Z"></path></g></g></svg>